<?xml version="1.0" encoding="utf-8"?>
<!-- Generator: Adobe Illustrator 25.2.0, SVG Export Plug-In . SVG Version: 6.00 Build 0)  -->
<svg version="1.1" id="Layer_1" xmlns="http://www.w3.org/2000/svg" xmlns:xlink="http://www.w3.org/1999/xlink" x="0px" y="0px"
	 viewBox="0 0 683.7 542.2" style="enable-background:new 0 0 683.7 542.2;" xml:space="preserve">
<style type="text/css">
	.st0{fill:#303099;}
	.st1{fill:#4F46E5;}
</style>
<g>
	<g>
		<path d="M283.7,223c0,31.2-22.3,56.6-54.5,56.6s-55.1-26-55.1-57.1h-41.8v0.5c0,51.7,40.2,93.5,96.4,93.5s96.9-42.3,96.9-94h-41.8
			V223z"/>
		<polygon class="st0" points="232.6,140.6 204.3,112.4 232.6,84.1 260.9,112.4 260.9,112.3 232.6,84.1 134.2,182.5 190.7,182.5 		
			"/>
		<polygon class="st1" points="204.3,112.4 232.6,140.6 274.4,182.5 331,182.5 260.9,112.4 232.6,84.1 		"/>
		<path d="M400.3,183.2c0-31.2,22.3-56.6,54.5-56.6s55.1,26,55.1,57.1h41.8v-0.5c0-51.7-40.2-93.5-96.3-93.5s-96.9,42.3-96.9,94
			h41.8V183.2z"/>
		<polygon class="st0" points="451.4,265.6 479.7,293.8 451.4,322.1 423.1,293.8 423.1,293.9 451.4,322.1 549.8,223.7 493.2,223.7 
					"/>
		<polygon class="st1" points="479.7,293.8 451.4,265.6 409.6,223.7 353,223.7 423.1,293.8 451.4,322.1 		"/>
		<rect x="215.1" y="188.1" class="st0" width="13.6" height="13.6"/>
		<rect x="232.9" y="188.1" class="st0" width="13.6" height="13.6"/>
		<rect x="215.1" y="207.2" class="st0" width="13.6" height="13.6"/>
		<rect x="232.9" y="207.2" class="st0" width="13.6" height="13.6"/>
		<circle class="st0" cx="454.8" cy="188.1" r="21.6"/>
	</g>
	<g>
		<path d="M69,406.5c2.2-4.2,3.3-9.4,3.3-15.6c0-7-1.1-12.6-3.4-16.7c-2.3-4.1-5.8-7-10.4-8.8c-4.6-1.8-10.4-2.6-17.2-2.6H7.8v85.6
			h17.3v-28.7h17.8l11.3,28.7h18.2l-13.4-32.6C63.4,413.8,66.8,410.7,69,406.5z M53.4,398.6c-0.8,2.2-2.2,3.9-4.1,5.1
			c-1.9,1.2-4.5,1.8-7.6,1.8H25.1V377h16.2c4.6,0,8,1.2,10.2,3.5c2.2,2.3,3.3,5.8,3.3,10.5C54.6,393.9,54.2,396.4,53.4,398.6z"/>
		<rect x="84" y="361.2" width="16.8" height="14.3"/>
		<rect x="84" y="385.5" width="16.7" height="62.9"/>
		<polygon points="141.6,434.3 138,434.3 127.4,385.5 109.5,385.5 124.4,448.4 154.4,448.4 169.3,385.5 152.4,385.5 		"/>
		<rect x="178.1" y="385.5" width="16.7" height="62.9"/>
		<rect x="178.1" y="361.2" width="16.8" height="14.3"/>
		<path d="M235.1,384.1c-6.3,0-11.5,1.2-15.8,3.6c-4.3,2.4-7.5,6-9.7,11c-2.2,4.9-3.3,11.3-3.3,19c0,7.2,0.9,13.2,2.6,17.9
			s4.7,8.3,8.7,10.7c4.1,2.3,9.5,3.5,16.5,3.5c3,0,6.2-0.1,9.6-0.4c3.4-0.3,6.7-0.6,9.8-1.1c3.2-0.4,5.8-0.8,7.9-1.1l-0.4-11.7
			c-2.2,0.2-4.8,0.3-7.8,0.5c-3.1,0.2-6.1,0.3-9.2,0.4c-3.1,0.1-5.9,0.2-8.5,0.2c-4.5,0-7.7-1.2-9.5-3.5c-1.8-2.3-2.8-5.8-2.9-10.5
			h39.3l0.8-9.3c0-10.1-2.4-17.5-7.1-22.2C251.4,386.5,244.4,384.1,235.1,384.1z M223.1,412c0-3.7,0.5-6.6,1.4-8.9
			c0.9-2.3,2.3-3.9,4-4.9c1.8-1,4-1.5,6.6-1.5c4,0,6.9,1.1,8.7,3.4c1.8,2.3,2.7,6.2,2.7,11.9H223.1z"/>
		<path d="M296.1,389.5c-2.1,1.2-3.8,2.4-5.3,3.4v-7.4h-16.7v62.9h16.7V407c1.5-0.8,3.3-1.6,5.5-2.5c2.1-0.9,4.4-1.8,6.8-2.6
			c2.4-0.8,4.7-1.4,6.9-1.7V384c-2.3,0.3-4.6,1-7.1,2.1C300.5,387.1,298.2,388.3,296.1,389.5z"/>
		<path d="M369.5,433.8v-28.7c0-5.2-0.9-9.3-2.8-12.3c-1.8-3-4.6-5.2-8.1-6.6c-3.6-1.3-8.1-2-13.4-2c-2.8,0-5.9,0.2-9.3,0.5
			c-3.3,0.3-6.5,0.8-9.6,1.3c-3.1,0.5-5.7,1.1-7.8,1.6l0.5,11.8c2.2-0.2,4.7-0.5,7.7-0.8c3-0.2,6-0.5,9-0.6c3-0.2,5.7-0.3,8.1-0.3
			c2.9,0,5.1,0.6,6.6,1.8c1.5,1.2,2.3,3.3,2.3,6.3v3.8l-15.3,1.4c-4.8,0.3-8.8,1-12.1,2.2c-3.3,1.2-5.8,3.1-7.5,5.8
			c-1.7,2.6-2.5,6.3-2.5,11c0,6.7,1.6,11.7,4.9,15c3.3,3.3,8.2,5,14.7,5c2.7,0,5.3-0.3,8-0.8c2.6-0.5,5.1-1.1,7.3-1.9s4.1-1.4,5.4-2
			c0.8,0.8,1.9,1.6,3.3,2.4s3,1.3,5,1.5c0.9,0.2,2,0.3,3.1,0.3c1.2,0,2.4,0,3.7,0c1.3,0,2.6-0.1,3.9-0.1l0.4-11.5
			c-1.4-0.3-2.7-0.7-3.8-1.3C370.3,435.8,369.7,434.9,369.5,433.8z M352.8,434.4c-0.9,0.4-2.2,0.9-3.7,1.3c-1.5,0.5-3.2,0.9-4.9,1.2
			c-1.8,0.3-3.4,0.5-5,0.5c-2.3,0-4.1-0.7-5.2-2.1c-1.1-1.4-1.7-3.4-1.7-5.9c0-2.5,0.6-4.4,1.8-5.8c1.2-1.4,3.2-2.2,6-2.4l12.8-1.1
			V434.4z"/>
		<path d="M463,391.2c-1.7-2.5-3.9-4.3-6.8-5.4c-2.9-1.1-6.5-1.7-11-1.7c-1.8,0-3.7,0.2-5.8,0.6c-2.1,0.4-4.2,0.9-6.1,1.4
			c-2,0.5-3.7,1.1-5.1,1.6v-27.9h-16.7v88.6h16.7v-47.1c0.9-0.3,2.1-0.7,3.6-1.1c1.5-0.4,3-0.8,4.6-1c1.6-0.3,3.1-0.4,4.6-0.4
			c2.8,0,4.9,0.6,6.3,1.8c1.4,1.2,2.3,3.1,2.8,5.7c0.5,2.6,0.8,6.1,0.8,10.5v31.7h16.8v-33c0-5.7-0.4-10.5-1.1-14.5
			C465.9,396.9,464.7,393.7,463,391.2z"/>
		<path d="M524.7,387.6c-4.3-2.3-9.9-3.4-16.9-3.4c-6.9,0-12.5,1.1-16.8,3.4c-4.3,2.3-7.5,5.8-9.5,10.5c-2,4.7-3,10.8-3,18.4
			c0,7.8,1,14.1,2.9,19c1.9,4.9,5,8.5,9.3,10.8c4.3,2.3,10,3.5,17.1,3.5c7.2,0,12.9-1.2,17.2-3.5c4.3-2.3,7.4-6,9.3-10.8
			c1.9-4.9,2.9-11.2,2.9-19c0-7.5-1-13.6-3.1-18.4C532.2,393.4,529,389.9,524.7,387.6z M519.4,427.8c-0.6,2.9-1.8,5-3.6,6.3
			c-1.8,1.3-4.4,1.9-7.9,1.9s-6.1-0.6-7.9-1.9c-1.8-1.3-2.9-3.4-3.6-6.3c-0.6-2.9-0.9-6.7-0.9-11.3c0-4.6,0.4-8.2,1.1-11
			c0.8-2.7,2-4.7,3.8-5.8c1.8-1.2,4.3-1.8,7.5-1.8c3.3,0,5.8,0.6,7.5,1.8c1.8,1.2,3,3.1,3.8,5.8c0.8,2.7,1.1,6.4,1.1,11
			C520.3,421.2,520,424.9,519.4,427.8z"/>
		<path d="M581.3,435c-1.2,0.1-2.3,0.2-3.5,0.3c-1.2,0.1-2,0.1-2.6,0.1c-2.1,0-3.6-0.4-4.6-1.1c-1-0.8-1.7-2-1.9-3.9
			c-0.3-1.8-0.4-4.4-0.4-7.6v-23.3h16v-13.9h-16v-16.7h-16.7v16.7h-7.4v13.9h7.4v27.7c0,5.9,0.6,10.5,1.8,13.8
			c1.2,3.3,3.2,5.6,6.1,7c2.8,1.3,6.6,2,11.2,2c1.2,0,2.6-0.1,4.3-0.3c1.7-0.2,3.5-0.4,5.3-0.7c1.8-0.2,3.3-0.5,4.6-0.8l-0.5-13.4
			C583.5,434.9,582.5,434.9,581.3,435z"/>
		<path d="M619.9,384.1c-6.3,0-11.5,1.2-15.8,3.6c-4.3,2.4-7.5,6-9.7,11c-2.2,4.9-3.3,11.3-3.3,19c0,7.2,0.9,13.2,2.6,17.9
			c1.8,4.8,4.7,8.3,8.7,10.7c4.1,2.3,9.5,3.5,16.5,3.5c3,0,6.2-0.1,9.6-0.4c3.4-0.3,6.7-0.6,9.8-1.1c3.2-0.4,5.8-0.8,7.9-1.1
			l-0.4-11.7c-2.2,0.2-4.8,0.3-7.8,0.5c-3.1,0.2-6.1,0.3-9.2,0.4c-3.1,0.1-5.9,0.2-8.5,0.2c-4.5,0-7.7-1.2-9.5-3.5
			c-1.8-2.3-2.8-5.8-2.9-10.5h39.3l0.8-9.3c0-10.1-2.4-17.5-7.1-22.2C636.2,386.5,629.2,384.1,619.9,384.1z M607.9,412
			c0-3.7,0.5-6.6,1.4-8.9c0.9-2.3,2.3-3.9,4-4.9c1.8-1,4-1.5,6.6-1.5c4,0,6.9,1.1,8.7,3.4c1.8,2.3,2.7,6.2,2.7,11.9H607.9z"/>
		<rect x="659.5" y="359.8" width="16.7" height="88.6"/>
	</g>
</g>
</svg>
